STARTFONT 2.1
FONT -Monotype-Bookman Old Style-Bold-I-Normal--10-100-75-75-P-58-iso8859-2
SIZE 10 75 75
FONTBOUNDINGBOX 17 13 -3 -3

STARTPROPERTIES 24
FOUNDRY "Monotype"
FAMILY_NAME "Bookman Old Style"
WEIGHT_NAME "Bold"
SLANT "I"
SETWIDTH_NAME "Normal"
ADD_STYLE_NAME ""
PIXEL_SIZE 10
POINT_SIZE 100
RESOLUTION_X 75
RESOLUTION_Y 75
SPACING "P"
AVERAGE_WIDTH 58
CHARSET_REGISTRY "iso8859"
CHARSET_ENCODING "2"
FACE_NAME "Bookman Old Style Bold Italic ISO Latin2"
_DEC_DEVICE_FONTNAMES "PS=bookmanoldstyle-bit-lat2"
COPYRIGHT "Copyright (c) 1994 Monotype Typography Ltd."
CAP_HEIGHT 8
X_HEIGHT 6
WEIGHT 10
QUAD_WIDTH 6
DEFAULT_CHAR 160
FONT_DESCENT 3
FONT_ASCENT 10
ENDPROPERTIES

CHARS 191

STARTCHAR space
ENCODING 32
SWIDTH 340 0
DWIDTH 3 0
BBX 0 0 0 0
BITMAP
ENDCHAR

STARTCHAR exclam
ENCODING 33
SWIDTH 320 0
DWIDTH 3 0
BBX 3 7 0 0
BITMAP
20
60
60
40
00
C0
C0
ENDCHAR

STARTCHAR quotedbl
ENCODING 34
SWIDTH 380 0
DWIDTH 4 0
BBX 5 3 0 4
BITMAP
28
50
A0
ENDCHAR

STARTCHAR numbersign
ENCODING 35
SWIDTH 600 0
DWIDTH 6 0
BBX 6 7 0 0
BITMAP
28
28
FC
50
F8
50
50
ENDCHAR

STARTCHAR dollar
ENCODING 36
SWIDTH 680 0
DWIDTH 7 0
BBX 6 10 1 -2
BITMAP
10
38
5C
70
38
28
E8
70
20
20
ENDCHAR

STARTCHAR percent
ENCODING 37
SWIDTH 880 0
DWIDTH 10 0
BBX 9 7 1 0
BITMAP
7100
9200
9400
EB80
1480
2480
4700
ENDCHAR

STARTCHAR ampersand
ENCODING 38
SWIDTH 980 0
DWIDTH 10 0
BBX 9 7 1 0
BITMAP
3800
2C00
7380
4900
C680
CE80
7B00
ENDCHAR

STARTCHAR quoteright
ENCODING 39
SWIDTH 320 0
DWIDTH 3 0
BBX 2 4 1 3
BITMAP
40
C0
40
80
ENDCHAR

STARTCHAR parenleft
ENCODING 40
SWIDTH 260 0
DWIDTH 3 0
BBX 3 9 0 -2
BITMAP
20
60
40
C0
C0
80
80
80
80
ENDCHAR

STARTCHAR parenright
ENCODING 41
SWIDTH 260 0
DWIDTH 3 0
BBX 3 9 0 -2
BITMAP
20
20
20
20
60
60
40
C0
80
ENDCHAR

STARTCHAR asterisk
ENCODING 42
SWIDTH 460 0
DWIDTH 5 0
BBX 4 3 1 4
BITMAP
A0
70
A0
ENDCHAR

STARTCHAR plus
ENCODING 43
SWIDTH 600 0
DWIDTH 6 0
BBX 5 5 1 1
BITMAP
20
20
F8
20
20
ENDCHAR

STARTCHAR comma
ENCODING 44
SWIDTH 340 0
DWIDTH 3 0
BBX 2 4 1 -2
BITMAP
40
C0
40
80
ENDCHAR

STARTCHAR minus
ENCODING 45
SWIDTH 600 0
DWIDTH 6 0
BBX 5 1 1 3
BITMAP
F8
ENDCHAR

STARTCHAR period
ENCODING 46
SWIDTH 340 0
DWIDTH 3 0
BBX 1 1 1 0
BITMAP
80
ENDCHAR

STARTCHAR slash
ENCODING 47
SWIDTH 360 0
DWIDTH 6 0
BBX 5 9 1 -2
BITMAP
08
08
10
10
20
40
40
80
80
ENDCHAR

STARTCHAR zero
ENCODING 48
SWIDTH 680 0
DWIDTH 7 0
BBX 7 7 1 0
BITMAP
3C
66
C6
C6
C6
CC
78
ENDCHAR

STARTCHAR one
ENCODING 49
SWIDTH 680 0
DWIDTH 7 0
BBX 4 7 2 0
BITMAP
10
70
30
30
60
60
F0
ENDCHAR

STARTCHAR two
ENCODING 50
SWIDTH 680 0
DWIDTH 7 0
BBX 7 7 0 0
BITMAP
1C
26
46
0C
18
36
FC
ENDCHAR

STARTCHAR three
ENCODING 51
SWIDTH 680 0
DWIDTH 7 0
BBX 6 7 1 0
BITMAP
38
4C
0C
30
0C
CC
78
ENDCHAR

STARTCHAR four
ENCODING 52
SWIDTH 680 0
DWIDTH 7 0
BBX 6 7 1 0
BITMAP
0C
3C
68
D8
FC
10
10
ENDCHAR

STARTCHAR five
ENCODING 53
SWIDTH 680 0
DWIDTH 7 0
BBX 6 7 1 0
BITMAP
3C
60
78
0C
8C
DC
78
ENDCHAR

STARTCHAR six
ENCODING 54
SWIDTH 680 0
DWIDTH 7 0
BBX 6 7 1 0
BITMAP
0C
38
60
F8
CC
CC
78
ENDCHAR

STARTCHAR seven
ENCODING 55
SWIDTH 680 0
DWIDTH 7 0
BBX 6 7 2 0
BITMAP
FC
88
18
30
60
60
C0
ENDCHAR

STARTCHAR eight
ENCODING 56
SWIDTH 680 0
DWIDTH 7 0
BBX 6 7 1 0
BITMAP
38
6C
6C
78
CC
D8
70
ENDCHAR

STARTCHAR nine
ENCODING 57
SWIDTH 680 0
DWIDTH 7 0
BBX 6 7 2 0
BITMAP
78
CC
CC
7C
18
70
C0
ENDCHAR

STARTCHAR colon
ENCODING 58
SWIDTH 340 0
DWIDTH 3 0
BBX 2 5 1 0
BITMAP
40
40
00
80
80
ENDCHAR

STARTCHAR semicolon
ENCODING 59
SWIDTH 340 0
DWIDTH 3 0
BBX 3 7 0 -2
BITMAP
20
20
00
40
C0
40
80
ENDCHAR

STARTCHAR less
ENCODING 60
SWIDTH 620 0
DWIDTH 6 0
BBX 4 5 1 1
BITMAP
10
60
80
60
10
ENDCHAR

STARTCHAR equal
ENCODING 61
SWIDTH 600 0
DWIDTH 6 0
BBX 5 3 1 2
BITMAP
F8
00
F8
ENDCHAR

STARTCHAR greater
ENCODING 62
SWIDTH 620 0
DWIDTH 6 0
BBX 4 5 1 1
BITMAP
80
60
10
60
80
ENDCHAR

STARTCHAR question
ENCODING 63
SWIDTH 620 0
DWIDTH 6 0
BBX 6 7 0 0
BITMAP
78
CC
0C
78
40
00
40
ENDCHAR

STARTCHAR at
ENCODING 64
SWIDTH 780 0
DWIDTH 8 0
BBX 9 9 0 -2
BITMAP
1F00
6080
4E80
9280
B480
BD00
A680
4100
3E00
ENDCHAR

STARTCHAR A
ENCODING 65
SWIDTH 720 0
DWIDTH 7 0
BBX 7 7 0 0
BITMAP
0C
0C
1C
24
3E
46
EE
ENDCHAR

STARTCHAR B
ENCODING 66
SWIDTH 720 0
DWIDTH 7 0
BBX 8 7 0 0
BITMAP
7E
33
33
3C
66
66
FC
ENDCHAR

STARTCHAR C
ENCODING 67
SWIDTH 700 0
DWIDTH 7 0
BBX 7 7 1 0
BITMAP
3C
66
C0
C0
C0
E4
78
ENDCHAR

STARTCHAR D
ENCODING 68
SWIDTH 760 0
DWIDTH 8 0
BBX 8 7 0 0
BITMAP
7E
33
33
33
63
66
FC
ENDCHAR

STARTCHAR E
ENCODING 69
SWIDTH 720 0
DWIDTH 7 0
BBX 8 7 0 0
BITMAP
7E
33
34
3C
68
63
FE
ENDCHAR

STARTCHAR F
ENCODING 70
SWIDTH 660 0
DWIDTH 7 0
BBX 8 7 0 0
BITMAP
7E
33
34
3C
68
60
F0
ENDCHAR

STARTCHAR G
ENCODING 71
SWIDTH 760 0
DWIDTH 8 0
BBX 8 7 1 0
BITMAP
3C
66
C0
CF
C6
EC
7C
ENDCHAR

STARTCHAR H
ENCODING 72
SWIDTH 800 0
DWIDTH 8 0
BBX 9 7 0 0
BITMAP
7B80
3300
3300
3F00
6600
6600
EF00
ENDCHAR

STARTCHAR I
ENCODING 73
SWIDTH 380 0
DWIDTH 4 0
BBX 5 7 0 0
BITMAP
78
30
30
30
60
60
F0
ENDCHAR

STARTCHAR J
ENCODING 74
SWIDTH 620 0
DWIDTH 6 0
BBX 7 7 0 0
BITMAP
1E
0C
0C
0C
D8
D8
70
ENDCHAR

STARTCHAR K
ENCODING 75
SWIDTH 780 0
DWIDTH 8 0
BBX 9 7 0 0
BITMAP
7B80
3300
3400
3C00
6600
6600
F700
ENDCHAR

STARTCHAR L
ENCODING 76
SWIDTH 640 0
DWIDTH 6 0
BBX 7 7 0 0
BITMAP
78
30
30
30
60
66
FC
ENDCHAR

STARTCHAR M
ENCODING 77
SWIDTH 860 0
DWIDTH 9 0
BBX 10 7 0 0
BITMAP
71C0
3B80
3B80
2D80
6B00
4B00
EB80
ENDCHAR

STARTCHAR N
ENCODING 78
SWIDTH 740 0
DWIDTH 7 0
BBX 9 7 0 0
BITMAP
7380
3100
3B00
3A00
6E00
4600
E600
ENDCHAR

STARTCHAR O
ENCODING 79
SWIDTH 760 0
DWIDTH 8 0
BBX 7 7 1 0
BITMAP
3C
66
C6
C6
C6
CC
78
ENDCHAR

STARTCHAR P
ENCODING 80
SWIDTH 640 0
DWIDTH 6 0
BBX 7 7 0 0
BITMAP
7C
36
36
3C
60
60
F0
ENDCHAR

STARTCHAR Q
ENCODING 81
SWIDTH 760 0
DWIDTH 8 0
BBX 7 9 1 -2
BITMAP
3C
66
C6
C6
C6
CC
78
30
1C
ENDCHAR

STARTCHAR R
ENCODING 82
SWIDTH 740 0
DWIDTH 7 0
BBX 8 7 0 0
BITMAP
7E
33
33
3E
6C
66
F7
ENDCHAR

STARTCHAR S
ENCODING 83
SWIDTH 700 0
DWIDTH 7 0
BBX 7 7 0 0
BITMAP
3C
66
70
38
1C
CC
78
ENDCHAR

STARTCHAR T
ENCODING 84
SWIDTH 700 0
DWIDTH 7 0
BBX 6 7 1 0
BITMAP
FC
B4
B4
30
60
60
F0
ENDCHAR

STARTCHAR U
ENCODING 85
SWIDTH 740 0
DWIDTH 7 0
BBX 8 7 0 0
BITMAP
F7
63
62
C6
C4
CC
78
ENDCHAR

STARTCHAR V
ENCODING 86
SWIDTH 660 0
DWIDTH 7 0
BBX 7 7 1 0
BITMAP
EE
64
6C
68
78
30
20
ENDCHAR

STARTCHAR W
ENCODING 87
SWIDTH 1000 0
DWIDTH 10 0
BBX 10 7 1 0
BITMAP
F5C0
6480
6D80
6D00
7700
3600
2400
ENDCHAR

STARTCHAR X
ENCODING 88
SWIDTH 740 0
DWIDTH 7 0
BBX 9 7 0 0
BITMAP
7B80
3300
1E00
1C00
2C00
6600
EF00
ENDCHAR

STARTCHAR Y
ENCODING 89
SWIDTH 660 0
DWIDTH 7 0
BBX 7 7 0 0
BITMAP
EE
64
68
38
30
30
78
ENDCHAR

STARTCHAR Z
ENCODING 90
SWIDTH 680 0
DWIDTH 7 0
BBX 8 7 0 0
BITMAP
3F
66
0C
18
30
66
FC
ENDCHAR

STARTCHAR bracketleft
ENCODING 91
SWIDTH 260 0
DWIDTH 3 0
BBX 3 9 0 -2
BITMAP
60
40
40
40
C0
80
80
80
C0
ENDCHAR

STARTCHAR backslash
ENCODING 92
SWIDTH 580 0
DWIDTH 6 0
BBX 5 9 1 -2
BITMAP
80
80
40
40
20
10
10
08
08
ENDCHAR

STARTCHAR bracketright
ENCODING 93
SWIDTH 260 0
DWIDTH 3 0
BBX 3 9 0 -2
BITMAP
60
20
20
20
60
40
40
40
C0
ENDCHAR

STARTCHAR asciicircum
ENCODING 94
SWIDTH 620 0
DWIDTH 6 0
BBX 5 4 1 3
BITMAP
20
70
50
D8
ENDCHAR

STARTCHAR underscore
ENCODING 95
SWIDTH 500 0
DWIDTH 5 0
BBX 5 1 0 -2
BITMAP
F8
ENDCHAR

STARTCHAR quoteleft
ENCODING 96
SWIDTH 320 0
DWIDTH 3 0
BBX 2 4 1 3
BITMAP
40
80
C0
80
ENDCHAR

STARTCHAR a
ENCODING 97
SWIDTH 680 0
DWIDTH 7 0
BBX 7 5 1 0
BITMAP
34
6C
CC
DA
6C
ENDCHAR

STARTCHAR b
ENCODING 98
SWIDTH 600 0
DWIDTH 6 0
BBX 6 7 1 0
BITMAP
E0
60
78
6C
CC
D8
F0
ENDCHAR

STARTCHAR c
ENCODING 99
SWIDTH 560 0
DWIDTH 6 0
BBX 5 5 1 0
BITMAP
38
68
C0
C8
70
ENDCHAR

STARTCHAR d
ENCODING 100
SWIDTH 680 0
DWIDTH 7 0
BBX 7 7 1 0
BITMAP
1C
0C
3C
6C
D8
DA
6C
ENDCHAR

STARTCHAR e
ENCODING 101
SWIDTH 560 0
DWIDTH 6 0
BBX 5 5 1 0
BITMAP
38
58
F0
C8
70
ENDCHAR

STARTCHAR f
ENCODING 102
SWIDTH 420 0
DWIDTH 4 0
BBX 7 9 -1 -2
BITMAP
0E
18
3C
18
18
30
30
B0
E0
ENDCHAR

STARTCHAR g
ENCODING 103
SWIDTH 620 0
DWIDTH 6 0
BBX 6 7 1 -2
BITMAP
34
6C
CC
DC
68
98
70
ENDCHAR

STARTCHAR h
ENCODING 104
SWIDTH 700 0
DWIDTH 7 0
BBX 7 7 1 0
BITMAP
E0
60
7C
6C
D8
DA
CC
ENDCHAR

STARTCHAR i
ENCODING 105
SWIDTH 380 0
DWIDTH 4 0
BBX 3 7 1 0
BITMAP
20
00
E0
60
60
C0
E0
ENDCHAR

STARTCHAR j
ENCODING 106
SWIDTH 320 0
DWIDTH 3 0
BBX 6 9 -2 -2
BITMAP
08
00
1C
0C
0C
18
18
B0
60
ENDCHAR

STARTCHAR k
ENCODING 107
SWIDTH 700 0
DWIDTH 7 0
BBX 7 7 1 0
BITMAP
E0
60
6C
70
D8
DA
CC
ENDCHAR

STARTCHAR l
ENCODING 108
SWIDTH 380 0
DWIDTH 4 0
BBX 3 7 1 0
BITMAP
E0
60
60
60
C0
C0
E0
ENDCHAR

STARTCHAR m
ENCODING 109
SWIDTH 960 0
DWIDTH 10 0
BBX 10 5 1 0
BITMAP
ED80
7F80
6D80
DB40
DB80
ENDCHAR

STARTCHAR n
ENCODING 110
SWIDTH 680 0
DWIDTH 7 0
BBX 7 5 1 0
BITMAP
EC
7C
6C
DA
DC
ENDCHAR

STARTCHAR o
ENCODING 111
SWIDTH 600 0
DWIDTH 6 0
BBX 6 5 1 0
BITMAP
38
6C
CC
D8
70
ENDCHAR

STARTCHAR p
ENCODING 112
SWIDTH 660 0
DWIDTH 7 0
BBX 7 7 0 -2
BITMAP
7C
36
36
64
78
60
F0
ENDCHAR

STARTCHAR q
ENCODING 113
SWIDTH 620 0
DWIDTH 6 0
BBX 6 7 1 -2
BITMAP
34
6C
CC
C8
78
18
3C
ENDCHAR

STARTCHAR r
ENCODING 114
SWIDTH 500 0
DWIDTH 4 0
BBX 5 5 1 0
BITMAP
D8
60
60
C0
C0
ENDCHAR

STARTCHAR s
ENCODING 115
SWIDTH 540 0
DWIDTH 5 0
BBX 5 5 0 0
BITMAP
78
E0
78
18
F0
ENDCHAR

STARTCHAR t
ENCODING 116
SWIDTH 440 0
DWIDTH 4 0
BBX 4 6 1 0
BITMAP
20
F0
60
C0
D0
60
ENDCHAR

STARTCHAR u
ENCODING 117
SWIDTH 680 0
DWIDTH 7 0
BBX 6 5 1 0
BITMAP
EC
6C
D8
D8
EC
ENDCHAR

STARTCHAR v
ENCODING 118
SWIDTH 540 0
DWIDTH 6 0
BBX 6 5 1 0
BITMAP
EC
6C
6C
D8
F0
ENDCHAR

STARTCHAR w
ENCODING 119
SWIDTH 860 0
DWIDTH 9 0
BBX 9 5 1 0
BITMAP
ED80
6D80
6D80
FF00
D600
ENDCHAR

STARTCHAR x
ENCODING 120
SWIDTH 620 0
DWIDTH 6 0
BBX 7 5 0 0
BITMAP
66
6C
38
6C
CE
ENDCHAR

STARTCHAR y
ENCODING 121
SWIDTH 600 0
DWIDTH 6 0
BBX 7 7 0 -2
BITMAP
76
36
66
6C
3C
D8
70
ENDCHAR

STARTCHAR z
ENCODING 122
SWIDTH 560 0
DWIDTH 6 0
BBX 6 5 0 0
BITMAP
3C
58
30
64
F8
ENDCHAR

STARTCHAR braceleft
ENCODING 123
SWIDTH 300 0
DWIDTH 3 0
BBX 4 9 0 -2
BITMAP
10
20
20
40
80
40
40
40
20
ENDCHAR

STARTCHAR bar
ENCODING 124
SWIDTH 620 0
DWIDTH 6 0
BBX 1 10 3 -2
BITMAP
80
80
80
80
80
80
80
80
80
80
ENDCHAR

STARTCHAR braceright
ENCODING 125
SWIDTH 300 0
DWIDTH 3 0
BBX 4 9 0 -2
BITMAP
40
20
20
20
10
20
40
40
80
ENDCHAR

STARTCHAR asciitilde
ENCODING 126
SWIDTH 620 0
DWIDTH 6 0
BBX 5 2 1 2
BITMAP
E8
B8
ENDCHAR

STARTCHAR space
ENCODING 160
SWIDTH 340 0
DWIDTH 4 0
BBX 0 0 0 0
BITMAP
ENDCHAR

STARTCHAR Aogonek
ENCODING 161
SWIDTH 720 0
DWIDTH 7 0
BBX 7 9 0 -2
BITMAP
0C
0C
1C
24
3E
46
EE
04
06
ENDCHAR

STARTCHAR breve
ENCODING 162
SWIDTH 460 0
DWIDTH 5 0
BBX 4 2 1 6
BITMAP
90
60
ENDCHAR

STARTCHAR Lslash
ENCODING 163
SWIDTH 640 0
DWIDTH 6 0
BBX 7 7 0 0
BITMAP
78
30
38
F0
60
66
FC
ENDCHAR

STARTCHAR currency
ENCODING 164
SWIDTH 680 0
DWIDTH 6 0
BBX 5 5 1 1
BITMAP
A8
D8
88
D8
A8
ENDCHAR

STARTCHAR Lcaron
ENCODING 165
SWIDTH 640 0
DWIDTH 6 0
BBX 7 7 0 0
BITMAP
7A
32
34
60
60
66
FC
ENDCHAR

STARTCHAR Sacute
ENCODING 166
SWIDTH 700 0
DWIDTH 7 0
BBX 7 10 0 0
BITMAP
04
08
00
3C
66
70
38
1C
CC
78
ENDCHAR

STARTCHAR section
ENCODING 167
SWIDTH 620 0
DWIDTH 6 0
BBX 7 9 0 -2
BITMAP
1C
26
38
5C
64
38
1C
CC
78
ENDCHAR

STARTCHAR dieresis
ENCODING 168
SWIDTH 520 0
DWIDTH 5 0
BBX 3 1 1 6
BITMAP
A0
ENDCHAR

STARTCHAR Scaron
ENCODING 169
SWIDTH 700 0
DWIDTH 7 0
BBX 7 10 0 0
BITMAP
14
08
00
3C
66
70
38
1C
CC
78
ENDCHAR

STARTCHAR Scommaaccent
ENCODING 170
SWIDTH 700 0
DWIDTH 7 0
BBX 7 10 0 -3
BITMAP
3C
66
70
38
1C
CC
78
00
10
20
ENDCHAR

STARTCHAR Tcaron
ENCODING 171
SWIDTH 700 0
DWIDTH 7 0
BBX 6 10 1 0
BITMAP
28
10
00
FC
B4
B4
30
60
60
F0
ENDCHAR

STARTCHAR Zacute
ENCODING 172
SWIDTH 680 0
DWIDTH 7 0
BBX 8 10 0 0
BITMAP
02
04
00
3F
66
0C
18
30
66
FC
ENDCHAR

STARTCHAR hyphen
ENCODING 173
SWIDTH 280 0
DWIDTH 3 0
BBX 2 1 1 2
BITMAP
C0
ENDCHAR

STARTCHAR Zcaron
ENCODING 174
SWIDTH 680 0
DWIDTH 7 0
BBX 8 10 0 0
BITMAP
0A
04
00
3F
66
0C
18
30
66
FC
ENDCHAR

STARTCHAR Zdotaccent
ENCODING 175
SWIDTH 680 0
DWIDTH 7 0
BBX 8 9 0 0
BITMAP
04
00
3F
66
0C
18
30
66
FC
ENDCHAR

STARTCHAR degree
ENCODING 176
SWIDTH 400 0
DWIDTH 4 0
BBX 3 3 1 4
BITMAP
40
A0
40
ENDCHAR

STARTCHAR aogonek
ENCODING 177
SWIDTH 680 0
DWIDTH 7 0
BBX 7 7 1 -2
BITMAP
34
6C
CC
DA
6C
08
0C
ENDCHAR

STARTCHAR ogonek
ENCODING 178
SWIDTH 320 0
DWIDTH 3 0
BBX 2 2 1 -2
BITMAP
80
C0
ENDCHAR

STARTCHAR lslash
ENCODING 179
SWIDTH 380 0
DWIDTH 4 0
BBX 5 7 0 0
BITMAP
70
30
38
30
E0
60
70
ENDCHAR

STARTCHAR acute
ENCODING 180
SWIDTH 340 0
DWIDTH 3 0
BBX 2 2 1 6
BITMAP
40
80
ENDCHAR

STARTCHAR lcaron
ENCODING 181
SWIDTH 492 0
DWIDTH 4 0
BBX 5 7 1 0
BITMAP
E8
68
70
60
C0
C0
E0
ENDCHAR

STARTCHAR sacute
ENCODING 182
SWIDTH 540 0
DWIDTH 5 0
BBX 5 8 0 0
BITMAP
10
20
00
78
E0
78
18
F0
ENDCHAR

STARTCHAR caron
ENCODING 183
SWIDTH 480 0
DWIDTH 5 0
BBX 3 2 1 6
BITMAP
A0
40
ENDCHAR

STARTCHAR commaaccent
ENCODING 184
SWIDTH 333 0
DWIDTH 3 0
BBX 2 2 1 -3
BITMAP
40
80
ENDCHAR

STARTCHAR scaron
ENCODING 185
SWIDTH 540 0
DWIDTH 5 0
BBX 5 8 0 0
BITMAP
28
10
00
78
E0
78
18
F0
ENDCHAR

STARTCHAR scommaaccent
ENCODING 186
SWIDTH 540 0
DWIDTH 5 0
BBX 5 8 0 -3
BITMAP
78
E0
78
18
F0
00
20
40
ENDCHAR

STARTCHAR tcaron
ENCODING 187
SWIDTH 541 0
DWIDTH 4 0
BBX 5 7 1 0
BITMAP
08
28
F0
60
C0
D0
60
ENDCHAR

STARTCHAR zacute
ENCODING 188
SWIDTH 560 0
DWIDTH 6 0
BBX 6 8 0 0
BITMAP
04
08
00
3C
58
30
64
F8
ENDCHAR

STARTCHAR hungarumlaut
ENCODING 189
SWIDTH 560 0
DWIDTH 6 0
BBX 4 2 1 6
BITMAP
50
A0
ENDCHAR

STARTCHAR zcaron
ENCODING 190
SWIDTH 560 0
DWIDTH 6 0
BBX 6 8 0 0
BITMAP
14
08
00
3C
58
30
64
F8
ENDCHAR

STARTCHAR zdotaccent
ENCODING 191
SWIDTH 560 0
DWIDTH 6 0
BBX 6 7 0 0
BITMAP
08
00
3C
58
30
64
F8
ENDCHAR

STARTCHAR Racute
ENCODING 192
SWIDTH 740 0
DWIDTH 7 0
BBX 8 10 0 0
BITMAP
04
08
00
7E
33
33
3E
6C
66
F7
ENDCHAR

STARTCHAR Aacute
ENCODING 193
SWIDTH 720 0
DWIDTH 7 0
BBX 7 10 0 0
BITMAP
02
04
00
0C
0C
1C
24
3E
46
EE
ENDCHAR

STARTCHAR Acircumflex
ENCODING 194
SWIDTH 720 0
DWIDTH 7 0
BBX 7 10 0 0
BITMAP
04
0A
00
0C
0C
1C
24
3E
46
EE
ENDCHAR

STARTCHAR Abreve
ENCODING 195
SWIDTH 720 0
DWIDTH 7 0
BBX 7 10 0 0
BITMAP
12
0C
00
0C
0C
1C
24
3E
46
EE
ENDCHAR

STARTCHAR Adieresis
ENCODING 196
SWIDTH 720 0
DWIDTH 7 0
BBX 7 9 0 0
BITMAP
0A
00
0C
0C
1C
24
3E
46
EE
ENDCHAR

STARTCHAR Lacute
ENCODING 197
SWIDTH 640 0
DWIDTH 6 0
BBX 7 10 0 0
BITMAP
08
10
00
78
30
30
30
60
66
FC
ENDCHAR

STARTCHAR Cacute
ENCODING 198
SWIDTH 700 0
DWIDTH 7 0
BBX 7 10 1 0
BITMAP
08
10
00
3C
66
C0
C0
C0
E4
78
ENDCHAR

STARTCHAR Ccedilla
ENCODING 199
SWIDTH 700 0
DWIDTH 7 0
BBX 7 10 1 -3
BITMAP
3C
66
C0
C0
C0
E4
78
10
08
30
ENDCHAR

STARTCHAR Ccaron
ENCODING 200
SWIDTH 700 0
DWIDTH 7 0
BBX 7 10 1 0
BITMAP
14
08
00
3C
66
C0
C0
C0
E4
78
ENDCHAR

STARTCHAR Eacute
ENCODING 201
SWIDTH 720 0
DWIDTH 7 0
BBX 8 10 0 0
BITMAP
04
08
00
7E
33
34
3C
68
63
FE
ENDCHAR

STARTCHAR Eogonek
ENCODING 202
SWIDTH 720 0
DWIDTH 7 0
BBX 8 9 0 -2
BITMAP
7E
33
34
3C
68
63
FE
04
06
ENDCHAR

STARTCHAR Edieresis
ENCODING 203
SWIDTH 720 0
DWIDTH 7 0
BBX 8 9 0 0
BITMAP
14
00
7E
33
34
3C
68
63
FE
ENDCHAR

STARTCHAR Ecaron
ENCODING 204
SWIDTH 720 0
DWIDTH 7 0
BBX 8 10 0 0
BITMAP
14
08
00
7E
33
34
3C
68
63
FE
ENDCHAR

STARTCHAR Iacute
ENCODING 205
SWIDTH 380 0
DWIDTH 4 0
BBX 5 10 0 0
BITMAP
08
10
00
78
30
30
30
60
60
F0
ENDCHAR

STARTCHAR Icircumflex
ENCODING 206
SWIDTH 380 0
DWIDTH 4 0
BBX 5 10 0 0
BITMAP
10
28
00
78
30
30
30
60
60
F0
ENDCHAR

STARTCHAR Dcaron
ENCODING 207
SWIDTH 760 0
DWIDTH 8 0
BBX 8 10 0 0
BITMAP
14
08
00
7E
33
33
33
63
66
FC
ENDCHAR

STARTCHAR Dcroat
ENCODING 208
SWIDTH 760 0
DWIDTH 8 0
BBX 8 7 0 0
BITMAP
7E
33
33
FB
63
66
FC
ENDCHAR

STARTCHAR Nacute
ENCODING 209
SWIDTH 740 0
DWIDTH 7 0
BBX 9 10 0 0
BITMAP
0200
0400
0000
7380
3100
3B00
3A00
6E00
4600
E600
ENDCHAR

STARTCHAR Ncaron
ENCODING 210
SWIDTH 740 0
DWIDTH 7 0
BBX 9 10 0 0
BITMAP
0A00
0400
0000
7380
3100
3B00
3A00
6E00
4600
E600
ENDCHAR

STARTCHAR Oacute
ENCODING 211
SWIDTH 760 0
DWIDTH 8 0
BBX 7 10 1 0
BITMAP
04
08
00
3C
66
C6
C6
C6
CC
78
ENDCHAR

STARTCHAR Ocircumflex
ENCODING 212
SWIDTH 760 0
DWIDTH 8 0
BBX 7 10 1 0
BITMAP
08
14
00
3C
66
C6
C6
C6
CC
78
ENDCHAR

STARTCHAR Ohungarumlaut
ENCODING 213
SWIDTH 760 0
DWIDTH 8 0
BBX 7 10 1 0
BITMAP
0A
14
00
3C
66
C6
C6
C6
CC
78
ENDCHAR

STARTCHAR Odieresis
ENCODING 214
SWIDTH 760 0
DWIDTH 8 0
BBX 7 9 1 0
BITMAP
14
00
3C
66
C6
C6
C6
CC
78
ENDCHAR

STARTCHAR multiply
ENCODING 215
SWIDTH 600 0
DWIDTH 6 0
BBX 4 5 1 1
BITMAP
90
F0
60
F0
90
ENDCHAR

STARTCHAR Rcaron
ENCODING 216
SWIDTH 740 0
DWIDTH 7 0
BBX 8 10 0 0
BITMAP
14
08
00
7E
33
33
3E
6C
66
F7
ENDCHAR

STARTCHAR Uring
ENCODING 217
SWIDTH 740 0
DWIDTH 7 0
BBX 8 10 1 0
BITMAP
08
14
08
F7
63
62
C6
C4
CC
78
ENDCHAR

STARTCHAR Uacute
ENCODING 218
SWIDTH 740 0
DWIDTH 7 0
BBX 8 10 1 0
BITMAP
04
08
00
F7
63
62
C6
C4
CC
78
ENDCHAR

STARTCHAR Uhungarumlaut
ENCODING 219
SWIDTH 740 0
DWIDTH 7 0
BBX 8 10 1 0
BITMAP
0A
14
00
F7
63
62
C6
C4
CC
78
ENDCHAR

STARTCHAR Udieresis
ENCODING 220
SWIDTH 740 0
DWIDTH 7 0
BBX 8 9 1 0
BITMAP
14
00
F7
63
62
C6
C4
CC
78
ENDCHAR

STARTCHAR Yacute
ENCODING 221
SWIDTH 660 0
DWIDTH 7 0
BBX 7 10 0 0
BITMAP
08
10
00
EE
64
68
38
30
30
78
ENDCHAR

STARTCHAR Tcommaaccent
ENCODING 222
SWIDTH 700 0
DWIDTH 7 0
BBX 6 10 1 -3
BITMAP
FC
B4
B4
30
60
60
F0
00
40
80
ENDCHAR

STARTCHAR germandbls
ENCODING 223
SWIDTH 660 0
DWIDTH 7 0
BBX 8 9 -1 -2
BITMAP
0E
1B
3A
16
33
39
36
A0
C0
ENDCHAR

STARTCHAR racute
ENCODING 224
SWIDTH 500 0
DWIDTH 5 0
BBX 5 8 1 0
BITMAP
10
20
00
D8
60
60
C0
C0
ENDCHAR

STARTCHAR aacute
ENCODING 225
SWIDTH 680 0
DWIDTH 7 0
BBX 7 8 1 0
BITMAP
08
10
00
34
6C
CC
DA
6C
ENDCHAR

STARTCHAR acircumflex
ENCODING 226
SWIDTH 680 0
DWIDTH 7 0
BBX 7 8 1 0
BITMAP
08
14
00
34
6C
CC
DA
6C
ENDCHAR

STARTCHAR abreve
ENCODING 227
SWIDTH 680 0
DWIDTH 7 0
BBX 7 8 1 0
BITMAP
24
18
00
34
6C
CC
DA
6C
ENDCHAR

STARTCHAR adieresis
ENCODING 228
SWIDTH 680 0
DWIDTH 7 0
BBX 7 7 1 0
BITMAP
14
00
34
6C
CC
DA
6C
ENDCHAR

STARTCHAR lacute
ENCODING 229
SWIDTH 380 0
DWIDTH 4 0
BBX 3 10 1 0
BITMAP
20
40
00
E0
60
60
60
C0
C0
E0
ENDCHAR

STARTCHAR cacute
ENCODING 230
SWIDTH 560 0
DWIDTH 6 0
BBX 5 8 1 0
BITMAP
08
10
00
38
68
C0
C8
70
ENDCHAR

STARTCHAR ccedilla
ENCODING 231
SWIDTH 560 0
DWIDTH 6 0
BBX 5 8 1 -3
BITMAP
38
68
C0
C8
70
20
10
60
ENDCHAR

STARTCHAR ccaron
ENCODING 232
SWIDTH 560 0
DWIDTH 6 0
BBX 5 8 1 0
BITMAP
28
10
00
38
68
C0
C8
70
ENDCHAR

STARTCHAR eacute
ENCODING 233
SWIDTH 560 0
DWIDTH 6 0
BBX 5 8 1 0
BITMAP
08
10
00
38
58
F0
C8
70
ENDCHAR

STARTCHAR eogonek
ENCODING 234
SWIDTH 560 0
DWIDTH 6 0
BBX 5 7 1 -2
BITMAP
38
58
F0
C8
70
20
30
ENDCHAR

STARTCHAR edieresis
ENCODING 235
SWIDTH 560 0
DWIDTH 6 0
BBX 5 7 1 0
BITMAP
28
00
38
58
F0
C8
70
ENDCHAR

STARTCHAR ecaron
ENCODING 236
SWIDTH 560 0
DWIDTH 6 0
BBX 5 8 1 0
BITMAP
28
10
00
38
58
F0
C8
70
ENDCHAR

STARTCHAR iacute
ENCODING 237
SWIDTH 380 0
DWIDTH 4 0
BBX 3 8 1 0
BITMAP
20
40
00
E0
60
60
C0
E0
ENDCHAR

STARTCHAR icircumflex
ENCODING 238
SWIDTH 380 0
DWIDTH 4 0
BBX 4 8 1 0
BITMAP
20
50
00
E0
60
60
C0
E0
ENDCHAR

STARTCHAR dcaron
ENCODING 239
SWIDTH 798 0
DWIDTH 7 0
BBX 8 7 1 0
BITMAP
1D
0D
3E
6C
D8
DA
6C
ENDCHAR

STARTCHAR dcroat
ENCODING 240
SWIDTH 680 0
DWIDTH 7 0
BBX 7 7 1 0
BITMAP
1E
0C
3C
6C
D8
DA
6C
ENDCHAR

STARTCHAR nacute
ENCODING 241
SWIDTH 680 0
DWIDTH 7 0
BBX 7 8 1 0
BITMAP
08
10
00
EC
7C
6C
DA
DC
ENDCHAR

STARTCHAR ncaron
ENCODING 242
SWIDTH 680 0
DWIDTH 7 0
BBX 7 8 1 0
BITMAP
28
10
00
EC
7C
6C
DA
DC
ENDCHAR

STARTCHAR oacute
ENCODING 243
SWIDTH 600 0
DWIDTH 6 0
BBX 6 8 0 0
BITMAP
08
10
00
38
6C
CC
D8
70
ENDCHAR

STARTCHAR ocircumflex
ENCODING 244
SWIDTH 600 0
DWIDTH 6 0
BBX 6 8 0 0
BITMAP
08
14
00
38
6C
CC
D8
70
ENDCHAR

STARTCHAR ohungarumlaut
ENCODING 245
SWIDTH 600 0
DWIDTH 6 0
BBX 6 8 0 0
BITMAP
14
28
00
38
6C
CC
D8
70
ENDCHAR

STARTCHAR odieresis
ENCODING 246
SWIDTH 600 0
DWIDTH 6 0
BBX 6 7 0 0
BITMAP
14
00
38
6C
CC
D8
70
ENDCHAR

STARTCHAR divide
ENCODING 247
SWIDTH 600 0
DWIDTH 6 0
BBX 5 5 1 1
BITMAP
20
00
F8
00
20
ENDCHAR

STARTCHAR rcaron
ENCODING 248
SWIDTH 500 0
DWIDTH 5 0
BBX 5 8 1 0
BITMAP
50
20
00
D8
60
60
C0
C0
ENDCHAR

STARTCHAR uring
ENCODING 249
SWIDTH 680 0
DWIDTH 7 0
BBX 6 9 1 0
BITMAP
10
28
10
00
EC
6C
D8
D8
EC
ENDCHAR

STARTCHAR uacute
ENCODING 250
SWIDTH 680 0
DWIDTH 7 0
BBX 6 8 1 0
BITMAP
08
10
00
EC
6C
D8
D8
EC
ENDCHAR

STARTCHAR uhungarumlaut
ENCODING 251
SWIDTH 680 0
DWIDTH 7 0
BBX 6 8 1 0
BITMAP
14
28
00
EC
6C
D8
D8
EC
ENDCHAR

STARTCHAR udieresis
ENCODING 252
SWIDTH 680 0
DWIDTH 7 0
BBX 6 7 1 0
BITMAP
28
00
EC
6C
D8
D8
EC
ENDCHAR

STARTCHAR yacute
ENCODING 253
SWIDTH 600 0
DWIDTH 6 0
BBX 7 10 0 -2
BITMAP
04
08
00
76
36
66
6C
3C
D8
70
ENDCHAR

STARTCHAR tcommaaccent
ENCODING 254
SWIDTH 440 0
DWIDTH 4 0
BBX 4 9 1 -3
BITMAP
20
F0
60
C0
D0
60
00
40
80
ENDCHAR

STARTCHAR dotaccent
ENCODING 255
SWIDTH 380 0
DWIDTH 4 0
BBX 1 1 2 6
BITMAP
80
ENDCHAR
ENDFONT
